<?xml version="1.0" standalone="no"?>
<!DOCTYPE svg PUBLIC "-//W3C//DTD SVG 20010904//EN"
 "http://www.w3.org/TR/2001/REC-SVG-20010904/DTD/svg10.dtd">
<svg version="1.0" xmlns="http://www.w3.org/2000/svg"
 width="1184.000000pt" height="400.000000pt" viewBox="0 0 1184.000000 400.000000"
 preserveAspectRatio="xMidYMid meet">

<g transform="translate(0.000000,400.000000) scale(0.100000,-0.100000)"
fill="#000000" stroke="none">
<path d="M2769 2716 c-3 -3 -29 -10 -58 -16 -113 -21 -171 -70 -231 -195 -58
-120 -84 -223 -135 -545 -26 -161 -51 -304 -56 -317 -21 -57 3 -58 59 -4 36
35 41 47 51 112 23 142 75 261 143 326 41 39 85 53 94 29 4 -9 -8 -99 -25
-200 -17 -101 -31 -209 -31 -240 0 -51 2 -56 26 -62 19 -5 36 1 66 22 73 51
131 158 93 171 -6 2 -21 -17 -34 -43 -13 -25 -33 -50 -44 -56 -19 -10 -20 -8
-13 48 4 32 18 119 32 194 14 74 25 162 25 194 0 75 -14 91 -68 81 -31 -5 -56
-25 -130 -101 -77 -78 -92 -89 -88 -66 45 249 59 313 81 384 48 151 81 194
161 209 49 9 99 47 91 69 -2 6 -6 9 -9 6z"/>
<path d="M6215 2710 c-11 -5 -45 -13 -76 -19 -68 -14 -124 -58 -174 -137 -19
-29 -44 -59 -57 -66 -16 -9 -92 -14 -258 -18 -226 -6 -237 -7 -291 -32 -99
-46 -174 -138 -203 -253 -18 -65 -21 -171 -7 -180 5 -3 30 19 54 49 44 54 44
55 34 100 -12 55 4 142 33 179 23 29 86 47 165 47 l56 0 -6 -47 c-21 -150 -96
-585 -105 -609 -6 -16 -24 -40 -39 -54 -16 -14 -32 -36 -36 -49 -7 -22 -5 -23
21 -16 35 10 46 10 110 0 48 -7 53 -5 87 25 21 18 37 38 37 46 0 17 -5 17 -32
3 -11 -6 -31 -8 -44 -5 -20 5 -22 10 -14 29 5 12 18 76 29 142 21 130 52 309
77 448 l16 87 92 0 c81 0 139 10 197 34 14 6 13 -5 -7 -81 -13 -48 -44 -216
-69 -373 -25 -157 -50 -300 -56 -318 -13 -40 -7 -49 25 -34 47 21 74 71 91
172 25 150 108 298 185 330 56 23 57 11 21 -205 -45 -267 -44 -305 3 -305 48
0 147 95 162 157 7 25 -14 59 -23 37 -11 -30 -64 -104 -74 -104 -15 0 -8 63
26 248 27 145 32 251 13 270 -39 39 -140 -28 -251 -166 -15 -19 -27 -32 -27
-30 0 2 11 68 24 148 56 329 126 480 224 480 21 0 43 10 63 28 35 31 37 54 4
42z"/>
<path d="M3621 2699 c-125 -24 -204 -110 -270 -291 -31 -84 -37 -115 -90 -446
-28 -171 -55 -321 -61 -332 -9 -16 -7 -22 6 -27 12 -4 29 7 59 38 37 39 43 53
49 104 14 117 14 117 71 -1 58 -121 82 -150 118 -140 34 8 117 100 117 129 0
39 -12 39 -37 2 -30 -45 -63 -47 -93 -5 -21 30 -70 141 -70 159 0 5 15 15 34
21 49 16 120 82 145 135 27 57 28 135 3 158 -41 37 -110 10 -182 -71 -28 -31
-50 -49 -50 -41 0 33 32 210 51 284 27 102 81 218 115 244 15 12 41 21 58 21
37 0 96 34 96 55 0 16 -5 17 -69 4z m-103 -617 c4 -54 -23 -100 -76 -130 -36
-20 -92 -30 -92 -17 0 19 65 129 94 160 46 49 70 45 74 -13z"/>
<path d="M4800 2694 c-14 -3 -45 -7 -69 -10 -95 -12 -208 -169 -245 -339 -17
-78 -95 -571 -103 -651 -10 -96 35 -122 103 -61 58 50 94 106 94 144 0 40 -17
43 -30 7 -14 -35 -49 -84 -61 -84 -16 0 -10 52 36 353 48 316 62 379 105 474
31 69 59 92 127 104 48 9 83 32 83 56 0 7 -3 12 -7 12 -5 -1 -19 -3 -33 -5z"/>
<path d="M1827 2470 c-106 -34 -204 -115 -251 -208 -27 -53 -47 -167 -40 -222
l6 -49 48 52 c47 51 48 52 43 108 -3 32 -2 74 1 94 10 53 75 120 142 145 70
26 74 25 69 -7 -3 -16 -28 -166 -55 -336 -49 -303 -62 -353 -98 -379 -22 -15
-44 -53 -36 -61 3 -3 19 -1 36 4 18 5 48 5 72 -1 23 -5 49 -10 58 -10 22 0 88
57 88 76 0 17 -5 17 -31 3 -30 -16 -62 -2 -55 24 4 12 15 67 26 122 31 156 26
145 64 145 53 0 168 64 220 121 126 140 110 335 -31 383 -65 22 -201 20 -276
-4z m219 -70 c54 -27 74 -67 74 -152 0 -89 -35 -159 -94 -187 -42 -21 -120
-28 -130 -13 -3 6 20 171 49 340 5 27 10 32 32 32 15 0 46 -9 69 -20z"/>
<path d="M7981 2475 c-126 -35 -223 -114 -274 -223 -27 -59 -32 -79 -35 -167
l-3 -100 49 53 50 53 -5 63 c-7 82 9 129 61 180 52 52 125 76 229 76 130 0
187 -39 187 -127 0 -48 -66 -140 -122 -169 -29 -15 -74 -19 -81 -6 -7 11 20
194 36 240 8 23 12 43 10 46 -10 9 -62 -16 -88 -44 -27 -28 -30 -41 -72 -332
l-43 -303 -50 -46 c-59 -54 -65 -74 -17 -63 17 5 50 6 72 4 22 -2 74 -4 115
-4 64 -1 83 4 128 29 180 98 226 305 96 425 -41 38 -45 44 -29 53 40 22 99 84
116 122 24 52 25 138 2 176 -10 16 -38 39 -63 51 -58 28 -191 35 -269 13z
m137 -462 c51 -34 92 -108 92 -168 0 -57 -37 -124 -80 -147 -34 -18 -112 -24
-157 -12 -19 5 -21 9 -12 26 8 15 58 285 59 321 0 17 59 5 98 -20z"/>
<path d="M3053 2449 c-32 -20 -37 -31 -49 -113 -6 -47 -6 -48 17 -41 63 19 72
33 83 128 6 54 -1 58 -51 26z"/>
<path d="M7118 2454 c-15 -8 -32 -22 -37 -32 -10 -19 -26 -132 -19 -132 25 0
71 27 82 49 17 32 24 123 11 127 -6 2 -22 -3 -37 -12z"/>
<path d="M8655 2461 c-35 -15 -55 -46 -66 -105 -6 -32 -8 -60 -6 -63 9 -8 75
25 85 44 12 24 24 133 15 132 -5 0 -17 -4 -28 -8z"/>
<path d="M9383 2360 c-42 -25 -59 -54 -68 -112 l-6 -48 -44 0 c-35 0 -49 -6
-76 -32 l-34 -33 68 -3 c81 -4 78 10 41 -206 -46 -270 -36 -334 50 -323 54 7
114 68 123 122 l6 40 -29 -37 c-29 -38 -64 -56 -83 -43 -20 12 -10 100 44 413
6 30 8 32 49 32 33 0 48 6 69 28 15 15 27 31 27 35 0 4 -29 7 -64 7 l-64 0 5
43 c5 44 16 90 28 120 9 22 -2 22 -42 -3z"/>
<path d="M2931 2163 c-61 -61 -86 -110 -69 -134 7 -10 11 -11 14 -2 11 25 65
93 74 93 16 0 12 -38 -26 -251 -19 -110 -34 -212 -32 -226 8 -68 83 -46 150
42 48 63 61 100 43 115 -11 9 -18 1 -37 -36 -22 -44 -51 -74 -62 -63 -6 5 26
194 54 326 22 104 25 145 10 174 -20 36 -57 23 -119 -38z"/>
<path d="M3865 2202 c-60 -37 -131 -136 -119 -166 8 -22 21 -20 29 4 8 26 54
80 67 80 13 0 9 -32 -27 -277 -23 -158 -25 -186 -13 -210 19 -39 59 -42 109
-7 38 26 115 109 153 164 16 24 17 23 11 -45 -4 -38 -8 -76 -11 -83 -7 -25 15
-62 38 -62 64 0 184 146 163 197 -7 17 -8 17 -18 -1 -7 -10 -24 -38 -39 -62
-49 -78 -59 -53 -33 77 50 254 76 401 72 406 -3 2 -24 -4 -47 -14 l-43 -18
-22 -112 c-28 -140 -78 -245 -151 -320 -52 -53 -80 -65 -90 -39 -5 14 6 107
42 332 15 96 15 114 3 140 -17 36 -35 40 -74 16z"/>
<path d="M7007 2179 c-55 -48 -100 -119 -91 -143 9 -24 20 -20 34 13 14 34 57
77 67 68 4 -4 -9 -94 -27 -200 -39 -220 -44 -294 -18 -310 27 -18 81 15 127
75 51 68 65 103 47 118 -11 8 -20 -1 -45 -45 -18 -31 -38 -55 -47 -55 -19 0
-21 -17 33 263 40 210 38 250 -8 255 -18 2 -39 -9 -72 -39z"/>
<path d="M8542 2191 c-46 -34 -102 -110 -102 -140 0 -34 18 -33 36 1 19 38 43
68 56 68 14 0 9 -50 -28 -263 -41 -231 -39 -257 13 -257 50 0 175 154 159 196
-9 23 -23 16 -36 -16 -15 -37 -48 -80 -61 -80 -16 0 -10 49 26 235 19 99 35
198 35 221 0 70 -32 82 -98 35z"/>
<path d="M8950 2209 c-84 -34 -124 -95 -118 -181 4 -48 11 -68 45 -116 81
-115 99 -174 67 -220 -22 -31 -83 -30 -122 3 l-29 24 -38 -39 c-38 -39 -38
-40 -19 -55 70 -53 208 -15 274 77 24 33 30 51 30 95 0 60 -13 91 -84 196 -47
70 -59 120 -34 145 17 17 55 15 90 -5 l30 -18 34 40 34 40 -28 12 c-33 15 -98
15 -132 2z"/>
<path d="M9672 2198 c-38 -27 -102 -114 -102 -139 0 -49 13 -50 41 0 46 79 70
79 62 -2 -5 -49 -69 -402 -79 -434 -10 -37 24 -29 65 15 33 34 39 50 58 143
11 61 34 134 52 173 36 75 107 156 137 156 26 0 44 -19 44 -44 0 -19 3 -18 30
9 38 38 52 84 36 116 -10 20 -20 24 -53 23 -54 -1 -93 -30 -153 -117 l-50 -70
6 75 c10 115 -21 146 -94 96z"/>
<path d="M10251 2209 c-72 -29 -177 -160 -221 -276 -27 -71 -38 -213 -20 -267
13 -39 51 -66 95 -66 91 0 217 131 274 285 46 121 37 273 -17 315 -26 21 -72
25 -111 9z m33 -94 c22 -22 29 -73 24 -173 -8 -172 -104 -304 -177 -245 -64
52 -34 322 44 407 28 30 84 36 109 11z"/>
<path d="M6618 2196 c-141 -50 -266 -242 -284 -433 -19 -211 91 -219 247 -17
23 30 43 53 45 52 1 -2 -2 -35 -8 -73 -20 -137 26 -166 117 -72 62 64 92 121
75 143 -10 12 -18 5 -44 -38 -36 -60 -56 -72 -56 -33 0 30 77 443 86 456 16
27 -114 38 -178 15z m56 -79 c18 -13 18 -16 -2 -94 -26 -103 -68 -185 -128
-252 -103 -114 -136 -77 -100 113 17 84 54 169 97 215 23 26 35 31 72 31 24 0
51 -6 61 -13z"/>
<path d="M200 1906 c0 -10 -16 -32 -35 -49 -19 -16 -35 -37 -35 -46 0 -15 300
-321 565 -575 96 -92 101 -95 150 -98 l50 -3 5 -53 c6 -60 0 -53 350 -401
l205 -204 1385 2 c979 2 1405 -1 1455 -9 100 -16 199 -59 306 -133 154 -106
166 -111 299 -113 63 -1 115 -5 117 -10 12 -35 41 -79 53 -82 9 -1 21 12 30
33 l15 36 55 -37 c76 -51 146 -81 205 -88 49 -5 49 -5 -15 12 -36 10 -83 26
-105 37 -62 29 -175 150 -210 224 l-30 63 -53 -5 c-115 -12 -206 18 -349 114
-100 68 -178 106 -259 125 -63 16 -184 17 -1479 15 l-1410 -2 -266 268 c-147
147 -272 278 -278 290 -6 12 -11 39 -11 61 l0 40 -56 4 -56 5 -299 299 c-193
193 -299 292 -299 280z"/>
<path d="M11355 1610 l-291 -290 -47 0 c-45 0 -47 -1 -47 -29 0 -16 -5 -42
-10 -58 -6 -15 -133 -151 -283 -301 l-272 -273 -1410 2 c-1102 1 -1422 -1
-1465 -11 -81 -18 -161 -58 -283 -138 -129 -86 -190 -106 -305 -105 l-83 1
-29 -59 c-25 -48 -29 -66 -24 -99 6 -39 13 -47 28 -33 4 4 53 8 109 8 129 2
168 15 305 110 74 50 135 83 197 105 l90 33 375 7 c206 3 845 4 1420 0 575 -3
1050 -3 1057 0 13 5 480 465 526 517 19 22 31 49 35 80 l7 48 55 10 55 9 328
326 c180 179 327 330 327 336 0 12 -61 93 -70 93 -3 1 -136 -130 -295 -289z"/>
<path d="M6230 130 c34 -27 104 -53 126 -47 14 4 13 5 -6 6 -14 1 -52 15 -85
31 -40 20 -51 23 -35 10z"/>
</g>
</svg>
